# xmcd CD database file
#
# Track frame offsets:
#	150
#	25180
#	46456
#	83599
#	108884
#	131023
#	151595
#	184548
#	215161
#	246558
#	271879
#
# Disc length: 3873 seconds
#
# Revision: 0
# Processed by: cddbd v1.5.2PL0 Copyright (c) Steve Scherf et al.
# Submitted via: CDex 1.51
#
DISCID=8e0f1f0b
DTITLE=Alexandra Lehmler -  No Blah Blah
DYEAR=2012
DGENRE=Jazz
TTITLE0=Feeling Round
TTITLE1=Opener
TTITLE2=Felina by Night
TTITLE3=Liegt alles noch vor uns
TTITLE4=All Alone
TTITLE5=Wind, Sand, Sea, Me
TTITLE6=MO
TTITLE7=Supergau
TTITLE8=Vicious Circles
TTITLE9=Nach der Rodung
TTITLE10=Schleierwolken
EXTD=YEAR: 2012
EXTT0=
EXTT1=
EXTT2=
EXTT3=
EXTT4=
EXTT5=
EXTT6=
EXTT7=
EXTT8=
EXTT9=
EXTT10=
PLAYORDER=
